<svg xmlns="http://www.w3.org/2000/svg" viewBox="-0.5 -0.5 16 16" id="File-Csv--Streamline-Font-Awesome.svg" height="16" width="16"><desc>File Csv Streamline Icon: https://streamlinehq.com</desc><!--! Font Awesome Free 6.5.2 by @fontawesome - https://fontawesome.com License - https://fontawesome.com/license/free (Icons: CC BY 4.0, Fonts: SIL OFL 1.1, Code: MIT License) Copyright 2024 Fonticons, Inc.--><path d="M0 1.875C0 0.8408203125 0.8408203125 0 1.875 0h4.6875v3.75c0 0.5185546875 0.4189453125 0.9375 0.9375 0.9375h3.75v4.21875H5.15625c-1.0341796875 0 -1.875 0.8408203125 -1.875 1.875v4.21875H1.875c-1.0341796875 0 -1.875 -0.8408203125 -1.875 -1.875V1.875zm11.25 1.875H7.5V0l3.75 3.75zM5.859375 10.3125h0.46875c0.6474609375 0 1.171875 0.5244140625 1.171875 1.171875v0.234375c0 0.2578125 -0.2109375 0.46875 -0.46875 0.46875s-0.46875 -0.2109375 -0.46875 -0.46875v-0.234375c0 -0.12890625 -0.10546875 -0.234375 -0.234375 -0.234375h-0.46875c-0.12890625 0 -0.234375 0.10546875 -0.234375 0.234375v2.34375c0 0.12890625 0.10546875 0.234375 0.234375 0.234375h0.46875c0.12890625 0 0.234375 -0.10546875 0.234375 -0.234375v-0.234375c0 -0.2578125 0.2109375 -0.46875 0.46875 -0.46875s0.46875 0.2109375 0.46875 0.46875v0.234375c0 0.6474609375 -0.5244140625 1.171875 -1.171875 1.171875h-0.46875c-0.6474609375 0 -1.171875 -0.5244140625 -1.171875 -1.171875v-2.34375c0 -0.6474609375 0.5244140625 -1.171875 1.171875 -1.171875zm3.8994140625 0H10.78125c0.2578125 0 0.46875 0.2109375 0.46875 0.46875s-0.2109375 0.46875 -0.46875 0.46875h-1.0224609375c-0.2109375 0 -0.3837890625 0.1728515625 -0.3837890625 0.3837890625 0 0.15234375 0.087890625 0.2900390625 0.228515625 0.3515625l1.095703125 0.48632812500000006c0.4775390625 0.2109375 0.78515625 0.685546875 0.78515625 1.20703125 0 0.7294921875 -0.591796875 1.3212890625 -1.3212890625 1.3212890625H8.90625c-0.2578125 0 -0.46875 -0.2109375 -0.46875 -0.46875s0.2109375 -0.46875 0.46875 -0.46875h1.2568359375c0.2109375 0 0.3837890625 -0.1728515625 0.3837890625 -0.3837890625 0 -0.15234375 -0.087890625 -0.2900390625 -0.228515625 -0.3515625l-1.095703125 -0.48632812500000006c-0.4775390625 -0.2109375 -0.78515625 -0.685546875 -0.78515625 -1.20703125 0 -0.7294921875 0.591796875 -1.3212890625 1.3212890625 -1.3212890625zm2.8974609375 0c0.2578125 0 0.46875 0.2109375 0.46875 0.46875v0.92578125c0 0.673828125 0.1611328125 1.3359375 0.46875 1.93359375 0.3076171875 -0.5947265625 0.46875 -1.2568359375 0.46875 -1.93359375V10.78125c0 -0.2578125 0.2109375 -0.46875 0.46875 -0.46875s0.46875 0.2109375 0.46875 0.46875v0.92578125c0 1.0166015625 -0.3017578125 2.0126953125 -0.8671875 2.859375l-0.1494140625 0.2255859375c-0.087890625 0.1318359375 -0.234375 0.2080078125 -0.3896484375 0.2080078125s-0.3017578125 -0.0791015625 -0.3896484375 -0.2080078125l-0.1494140625 -0.2255859375c-0.5654296875 -0.8466796875 -0.8671875 -1.8427734375 -0.8671875 -2.859375V10.78125c0 -0.2578125 0.2109375 -0.46875 0.46875 -0.46875z" stroke-width="1"></path></svg>