<svg xmlns="http://www.w3.org/2000/svg" viewBox="-0.5 -0.5 16 16" id="File-Pdf--Streamline-Font-Awesome.svg" height="16" width="16"><desc>File Pdf Streamline Icon: https://streamlinehq.com</desc><!--! Font Awesome Free 6.5.2 by @fontawesome - https://fontawesome.com License - https://fontawesome.com/license/free (Icons: CC BY 4.0, Fonts: SIL OFL 1.1, Code: MIT License) Copyright 2024 Fonticons, Inc.--><path d="M0.3796875 1.9875c0 -1.01349609375 0.8240039062500001 -1.8375 1.8375 -1.8375h4.59375v3.675c0 0.50818359375 0.41056640624999996 0.91875 0.91875 0.91875h3.675v4.134375H5.4328125c-1.01349609375 0 -1.8375 0.8240039062500001 -1.8375 1.8375v4.134375H2.2171875c-1.01349609375 0 -1.8375 -0.8240039062500001 -1.8375 -1.8375V1.9875Zm11.025 1.8375H7.729687499999999V0.15l3.675 3.675ZM5.4328125 10.25625h0.91875c0.88716796875 0 1.6078125 0.7206445312499999 1.6078125 1.6078125s-0.7206445312499999 1.6078125 -1.6078125 1.6078125h-0.459375v0.91875c0 0.25265625 -0.20671875 0.459375 -0.459375 0.459375s-0.459375 -0.20671875 -0.459375 -0.459375V10.715625c0 -0.25265625 0.20671875 -0.459375 0.459375 -0.459375Zm0.91875 2.296875c0.38185546875000004 0 0.6890625 -0.30720703125000004 0.6890625 -0.6890625s-0.30720703125000004 -0.6890625 -0.6890625 -0.6890625h-0.459375v1.378125h0.459375Zm2.75625 -2.296875h0.91875c0.7608398437499999 0 1.378125 0.61728515625 1.378125 1.378125v1.8375c0 0.7608398437499999 -0.61728515625 1.378125 -1.378125 1.378125h-0.91875c-0.25265625 0 -0.459375 -0.20671875 -0.459375 -0.459375V10.715625c0 -0.25265625 0.20671875 -0.459375 0.459375 -0.459375Zm0.91875 3.675c0.25265625 0 0.459375 -0.20671875 0.459375 -0.459375v-1.8375c0 -0.25265625 -0.20671875 -0.459375 -0.459375 -0.459375h-0.459375v2.75625h0.459375Zm2.296875 -3.215625c0 -0.25265625 0.20671875 -0.459375 0.459375 -0.459375h1.378125c0.25265625 0 0.459375 0.20671875 0.459375 0.459375s-0.20671875 0.459375 -0.459375 0.459375H13.2421875v0.91875h0.91875c0.25265625 0 0.459375 0.20671875 0.459375 0.459375s-0.20671875 0.459375 -0.459375 0.459375H13.2421875v1.378125c0 0.25265625 -0.20671875 0.459375 -0.459375 0.459375s-0.459375 -0.20671875 -0.459375 -0.459375V10.715625Z" stroke-width="1"></path></svg>