<svg xmlns="http://www.w3.org/2000/svg" viewBox="-0.5 -0.5 16 16" id="File-Pdf--Streamline-Font-Awesome.svg" height="16" width="16"><desc>File Pdf Streamline Icon: https://streamlinehq.com</desc><!--! Font Awesome Free 6.5.2 by @fontawesome - https://fontawesome.com License - https://fontawesome.com/license/free (Icons: CC BY 4.0, Fonts: SIL OFL 1.1, Code: MIT License) Copyright 2024 Fonticons, Inc.--><path d="M2.2171875 13.471874999999999H3.5953125V14.85H2.2171875C1.20369140625 14.85 0.3796875 14.02599609375 0.3796875 13.012500000000001V1.9875C0.3796875 0.9740039062500001 1.20369140625 0.15 2.2171875 0.15H6.96884765625C7.45693359375 0.15 7.924921875000001 0.34236328125 8.269453125 0.68689453125L10.86779296875 3.285234375C11.21232421875 3.629765625 11.4046875 4.09775390625 11.4046875 4.58583984375V8.878125H10.0265625V4.7437499999999995H7.729687499999999C7.22150390625 4.7437499999999995 6.8109375 4.33318359375 6.8109375 3.825V1.528125H2.2171875C1.9645312499999998 1.528125 1.7578125 1.73484375 1.7578125 1.9875V13.012500000000001C1.7578125 13.26515625 1.9645312499999998 13.471874999999999 2.2171875 13.471874999999999ZM5.4328125 10.25625H6.3515625C7.23873046875 10.25625 7.9593750000000005 10.97689453125 7.9593750000000005 11.8640625S7.23873046875 13.471874999999999 6.3515625 13.471874999999999H5.8921875V14.390625C5.8921875 14.643281250000001 5.68546875 14.85 5.4328125 14.85S4.973437499999999 14.643281250000001 4.973437499999999 14.390625V13.012500000000001V10.715625C4.973437499999999 10.46296875 5.1801562500000005 10.25625 5.4328125 10.25625ZM6.3515625 12.553125000000001C6.73341796875 12.553125000000001 7.0406249999999995 12.245917968750001 7.0406249999999995 11.8640625S6.73341796875 11.175 6.3515625 11.175H5.8921875V12.553125000000001H6.3515625ZM9.1078125 10.25625H10.0265625C10.78740234375 10.25625 11.4046875 10.87353515625 11.4046875 11.634375V13.471874999999999C11.4046875 14.23271484375 10.78740234375 14.85 10.0265625 14.85H9.1078125C8.855156249999999 14.85 8.6484375 14.643281250000001 8.6484375 14.390625V10.715625C8.6484375 10.46296875 8.855156249999999 10.25625 9.1078125 10.25625ZM10.0265625 13.931249999999999C10.27921875 13.931249999999999 10.4859375 13.72453125 10.4859375 13.471874999999999V11.634375C10.4859375 11.38171875 10.27921875 11.175 10.0265625 11.175H9.5671875V13.931249999999999H10.0265625ZM12.323437499999999 10.715625C12.323437499999999 10.46296875 12.530156250000001 10.25625 12.7828125 10.25625H14.160937500000001C14.413593749999999 10.25625 14.6203125 10.46296875 14.6203125 10.715625S14.413593749999999 11.175 14.160937500000001 11.175H13.2421875V12.09375H14.160937500000001C14.413593749999999 12.09375 14.6203125 12.30046875 14.6203125 12.553125000000001S14.413593749999999 13.012500000000001 14.160937500000001 13.012500000000001H13.2421875V14.390625C13.2421875 14.643281250000001 13.03546875 14.85 12.7828125 14.85S12.323437499999999 14.643281250000001 12.323437499999999 14.390625V12.553125000000001V10.715625Z" stroke-width="1"></path></svg>